<svg xmlns="http://www.w3.org/2000/svg" xmlns:xlink="http://www.w3.org/1999/xlink" id="processonSvg1000" viewBox="40.603179931640625 21.0 490.7618865966797 292.0" width="490.7618865966797" height="292.0"><defs id="ProcessOnDefs1001"/><g id="ProcessOnG1002"><path id="ProcessOnPath1003" d="M40.603179931640625 21.0H531.3650665283203V313.0H40.603179931640625V21.0Z" fill="none"/><g id="ProcessOnG1004"><g id="ProcessOnG1005" transform="matrix(1.0,0.0,0.0,1.0,68.73013305664062,41.0)" opacity="1.0"><path id="ProcessOnPath1006" d="M0.0 4.0Q0.0 0.0 4.0 0.0L104.0 0.0Q108.0 0.0 108.0 4.0L108.0 38.0Q108.0 42.0 104.0 42.0L4.0 42.0Q0.0 42.0 0.0 38.0Z" stroke="#323232" stroke-width="2.0" stroke-dasharray="none" opacity="1.0" fill="#ffffff"/><g id="ProcessOnG1007" transform="matrix(1.0,0.0,0.0,1.0,10.0,4.75)"><text id="ProcessOnText1008" fill="#000000" font-size="13" x="43.0" y="13.325" font-family="微软雅黑" font-weight="normal" font-style="normal" text-decoration="none" family="微软雅黑" text-anchor="middle" size="13">User</text><text id="ProcessOnText1009" fill="#000000" font-size="13" x="43.0" y="29.575" font-family="微软雅黑" font-weight="normal" font-style="normal" text-decoration="none" family="微软雅黑" text-anchor="middle" size="13">Web browser</text></g></g><g id="ProcessOnG1010" transform="matrix(1.0,0.0,0.0,1.0,220.4900665283203,41.0)" opacity="1.0"><path id="ProcessOnPath1011" d="M0.0 4.0Q0.0 0.0 4.0 0.0L104.0 0.0Q108.0 0.0 108.0 4.0L108.0 38.0Q108.0 42.0 104.0 42.0L4.0 42.0Q0.0 42.0 0.0 38.0Z" stroke="#323232" stroke-width="2.0" stroke-dasharray="none" opacity="1.0" fill="#ffffff"/><g id="ProcessOnG1012" transform="matrix(1.0,0.0,0.0,1.0,10.0,4.75)"><text id="ProcessOnText1013" fill="#000000" font-size="13" x="43.0" y="13.325" font-family="微软雅黑" font-weight="normal" font-style="normal" text-decoration="none" family="微软雅黑" text-anchor="middle" size="13">User</text><text id="ProcessOnText1014" fill="#000000" font-size="13" x="43.0" y="29.575" font-family="微软雅黑" font-weight="normal" font-style="normal" text-decoration="none" family="微软雅黑" text-anchor="middle" size="13">Web browser</text></g></g><g id="ProcessOnG1015" transform="matrix(1.0,0.0,0.0,1.0,375.3650665283203,41.0)" opacity="1.0"><path id="ProcessOnPath1016" d="M0.0 4.0Q0.0 0.0 4.0 0.0L104.0 0.0Q108.0 0.0 108.0 4.0L108.0 38.0Q108.0 42.0 104.0 42.0L4.0 42.0Q0.0 42.0 0.0 38.0Z" stroke="#323232" stroke-width="2.0" stroke-dasharray="none" opacity="1.0" fill="#ffffff"/><g id="ProcessOnG1017" transform="matrix(1.0,0.0,0.0,1.0,10.0,4.75)"><text id="ProcessOnText1018" fill="#000000" font-size="13" x="43.0" y="13.325" font-family="微软雅黑" font-weight="normal" font-style="normal" text-decoration="none" family="微软雅黑" text-anchor="middle" size="13">User</text><text id="ProcessOnText1019" fill="#000000" font-size="13" x="43.0" y="29.575" font-family="微软雅黑" font-weight="normal" font-style="normal" text-decoration="none" family="微软雅黑" text-anchor="middle" size="13">Web browser</text></g></g><g id="ProcessOnG1020" transform="matrix(1.0,0.0,0.0,1.0,118.74006652832031,133.3333282470703)" opacity="1.0"><path id="ProcessOnPath1021" d="M0.0 31.833335876464844C0.0 -10.611111958821615 303.9900665283203 -10.611111958821615 303.9900665283203 31.833335876464844C303.9900665283203 74.2777837117513 0.0 74.2777837117513 0.0 31.833335876464844Z" stroke="#323232" stroke-width="2.0" stroke-dasharray="none" opacity="1.0" fill="#ffffff"/><g id="ProcessOnG1022" transform="matrix(1.0,0.0,0.0,1.0,10.0,23.708335876464844)"><text id="ProcessOnText1023" fill="#000000" font-size="13" x="140.99503326416016" y="13.325" font-family="微软雅黑" font-weight="normal" font-style="normal" text-decoration="none" family="微软雅黑" text-anchor="middle" size="13">rtty server</text></g></g><g id="ProcessOnG1024" transform="matrix(1.0,0.0,0.0,1.0,60.603179931640625,251.0)" opacity="1.0"><path id="ProcessOnPath1025" d="M0.0 4.0Q0.0 0.0 4.0 0.0L122.126953125 0.0Q126.126953125 0.0 126.126953125 4.0L126.126953125 38.0Q126.126953125 42.0 122.126953125 42.0L4.0 42.0Q0.0 42.0 0.0 38.0Z" stroke="#323232" stroke-width="2.0" stroke-dasharray="none" opacity="1.0" fill="#ffffff"/><g id="ProcessOnG1026" transform="matrix(1.0,0.0,0.0,1.0,10.0,4.75)"><text id="ProcessOnText1027" fill="#000000" font-size="13" x="52.0634765625" y="13.325" font-family="微软雅黑" font-weight="normal" font-style="normal" text-decoration="none" family="微软雅黑" text-anchor="middle" size="13">terminal(MAC0)</text><text id="ProcessOnText1028" fill="#000000" font-size="13" x="52.0634765625" y="29.575" font-family="微软雅黑" font-weight="normal" font-style="normal" text-decoration="none" family="微软雅黑" text-anchor="middle" size="13">rtty client</text></g></g><g id="ProcessOnG1029" transform="matrix(1.0,0.0,0.0,1.0,219.3849334716797,251.0)" opacity="1.0"><path id="ProcessOnPath1030" d="M0.0 4.0Q0.0 0.0 4.0 0.0L126.21026611328125 0.0Q130.21026611328125 0.0 130.21026611328125 4.0L130.21026611328125 38.0Q130.21026611328125 42.0 126.21026611328125 42.0L4.0 42.0Q0.0 42.0 0.0 38.0Z" stroke="#323232" stroke-width="2.0" stroke-dasharray="none" opacity="1.0" fill="#ffffff"/><g id="ProcessOnG1031" transform="matrix(1.0,0.0,0.0,1.0,10.0,4.75)"><text id="ProcessOnText1032" fill="#000000" font-size="13" x="54.105133056640625" y="13.325" font-family="微软雅黑" font-weight="normal" font-style="normal" text-decoration="none" family="微软雅黑" text-anchor="middle" size="13">terminal(MAC1)</text><text id="ProcessOnText1033" fill="#000000" font-size="13" x="54.105133056640625" y="29.575" font-family="微软雅黑" font-weight="normal" font-style="normal" text-decoration="none" family="微软雅黑" text-anchor="middle" size="13">rtty client</text></g></g><g id="ProcessOnG1034" transform="matrix(1.0,0.0,0.0,1.0,381.6666564941406,251.0)" opacity="1.0"><path id="ProcessOnPath1035" d="M0.0 4.0Q0.0 0.0 4.0 0.0L125.69841003417969 0.0Q129.6984100341797 0.0 129.6984100341797 4.0L129.6984100341797 38.0Q129.6984100341797 42.0 125.69841003417969 42.0L4.0 42.0Q0.0 42.0 0.0 38.0Z" stroke="#323232" stroke-width="2.0" stroke-dasharray="none" opacity="1.0" fill="#ffffff"/><g id="ProcessOnG1036" transform="matrix(1.0,0.0,0.0,1.0,10.0,4.75)"><text id="ProcessOnText1037" fill="#000000" font-size="13" x="53.849205017089844" y="13.325" font-family="微软雅黑" font-weight="normal" font-style="normal" text-decoration="none" family="微软雅黑" text-anchor="middle" size="13">terminal(MAC2)</text><text id="ProcessOnText1038" fill="#000000" font-size="13" x="53.849205017089844" y="29.575" font-family="微软雅黑" font-weight="normal" font-style="normal" text-decoration="none" family="微软雅黑" text-anchor="middle" size="13">rtty client</text></g></g><g id="ProcessOnG1039"><path id="ProcessOnPath1040" d="M122.73013305664062 83.0C122.73013305664062 119.98578128569156 194.19798135458376 100.66068640543463 197.42150459364063 137.50572562702146" stroke="#323232" stroke-width="2.0" stroke-dasharray="none" fill="none"/><g id="ProcessOnG1041" transform="matrix(1.0,0.0,0.0,1.0,158.8669976104943,102.18064108755)"><path id="ProcessOnPath1042" d="M0 0H39.0V16.25H0Z" fill="#fff" transform="matrix(1.0,0.0,0.0,1.0,-19.5,0.0)"/><text id="ProcessOnText1043" fill="#000000" font-size="13" x="0.0" y="13.325" font-family="微软雅黑" font-weight="normal" font-style="normal" text-decoration="none" family="微软雅黑" text-anchor="middle" size="13">MAC0</text></g></g><g id="ProcessOnG1044"><path id="ProcessOnPath1045" d="M274.4900665283203 83.0C274.4900665283203 103.18927916539701 270.73509979248047 113.1440490816733 270.73509979248047 133.3333282470703" stroke="#323232" stroke-width="2.0" stroke-dasharray="none" fill="none"/><g id="ProcessOnG1046" transform="matrix(1.0,0.0,0.0,1.0,272.6125831604004,100.04166412353516)"><path id="ProcessOnPath1047" d="M0 0H39.0V16.25H0Z" fill="#fff" transform="matrix(1.0,0.0,0.0,1.0,-19.5,0.0)"/><text id="ProcessOnText1048" fill="#000000" font-size="13" x="0.0" y="13.325" font-family="微软雅黑" font-weight="normal" font-style="normal" text-decoration="none" family="微软雅黑" text-anchor="middle" size="13">MAC1</text></g></g><g id="ProcessOnG1049"><path id="ProcessOnPath1050" d="M420.59519958496094 82.47160339355469C420.59519958496094 117.18111938882501 357.3164297934888 103.87169001873133 354.2912961465093 138.44912582655024" stroke="#323232" stroke-width="2.0" stroke-dasharray="none" fill="none"/><g id="ProcessOnG1051" transform="matrix(1.0,0.0,0.0,1.0,388.57767298335244,102.38489468034675)"><path id="ProcessOnPath1052" d="M0 0H39.0V16.25H0Z" fill="#fff" transform="matrix(1.0,0.0,0.0,1.0,-19.5,0.0)"/><text id="ProcessOnText1053" fill="#000000" font-size="13" x="0.0" y="13.325" font-family="微软雅黑" font-weight="normal" font-style="normal" text-decoration="none" family="微软雅黑" text-anchor="middle" size="13">MAC2</text></g></g><g id="ProcessOnG1054"><path id="ProcessOnPath1055" d="M123.66665649414062 251.0C123.66665649414062 217.4751423684213 179.1556866209658 224.29203922097008 182.07757048835555 190.89475379411078" stroke="#323232" stroke-width="2.0" stroke-dasharray="none" fill="none"/></g><g id="ProcessOnG1056"><path id="ProcessOnPath1057" d="M284.4900665283203 251.0C284.4900665283203 228.7102746184559 270.73509979248047 219.2897253815441 270.73509979248047 197.0" stroke="#323232" stroke-width="2.0" stroke-dasharray="none" fill="none"/></g><g id="ProcessOnG1058"><path id="ProcessOnPath1059" d="M446.51586151123047 251.0C446.51586151123047 211.80580799356449 377.3871917676017 227.67071962991758 370.5811917505564 189.07197546893076" stroke="#323232" stroke-width="2.0" stroke-dasharray="none" fill="none"/></g><g id="ProcessOnG1060" transform="matrix(1.0,0.0,0.0,1.0,176.73013305664062,52.0)" opacity="1.0"><path id="ProcessOnPath1061" d="M0.0 0.0L35.769866943359375 0.0L35.769866943359375 20.0L0.0 20.0Z" stroke="none" stroke-width="0.0" stroke-dasharray="none" opacity="1.0" fill="none"/><g id="ProcessOnG1062" transform="matrix(1.0,0.0,0.0,1.0,0.0,-5.0)"><text id="ProcessOnText1063" fill="#000000" font-size="24" x="16.884933471679688" y="24.6" font-family="微软雅黑" font-weight="normal" font-style="normal" text-decoration="none" family="微软雅黑" text-anchor="middle" size="24">...</text></g></g><g id="ProcessOnG1064" transform="matrix(1.0,0.0,0.0,1.0,332.96026611328125,52.0)" opacity="1.0"><path id="ProcessOnPath1065" d="M0.0 0.0L35.769866943359375 0.0L35.769866943359375 20.0L0.0 20.0Z" stroke="none" stroke-width="0.0" stroke-dasharray="none" opacity="1.0" fill="none"/><g id="ProcessOnG1066" transform="matrix(1.0,0.0,0.0,1.0,0.0,-5.0)"><text id="ProcessOnText1067" fill="#000000" font-size="24" x="16.884933471679688" y="24.6" font-family="微软雅黑" font-weight="normal" font-style="normal" text-decoration="none" family="微软雅黑" text-anchor="middle" size="24">...</text></g></g><g id="ProcessOnG1068" transform="matrix(1.0,0.0,0.0,1.0,182.0,262.0)" opacity="1.0"><path id="ProcessOnPath1069" d="M0.0 0.0L35.769866943359375 0.0L35.769866943359375 20.0L0.0 20.0Z" stroke="none" stroke-width="0.0" stroke-dasharray="none" opacity="1.0" fill="none"/><g id="ProcessOnG1070" transform="matrix(1.0,0.0,0.0,1.0,0.0,-5.0)"><text id="ProcessOnText1071" fill="#000000" font-size="24" x="16.884933471679688" y="24.6" font-family="微软雅黑" font-weight="normal" font-style="normal" text-decoration="none" family="微软雅黑" text-anchor="middle" size="24">...</text></g></g><g id="ProcessOnG1072" transform="matrix(1.0,0.0,0.0,1.0,349.59519958496094,262.0)" opacity="1.0"><path id="ProcessOnPath1073" d="M0.0 0.0L35.769866943359375 0.0L35.769866943359375 20.0L0.0 20.0Z" stroke="none" stroke-width="0.0" stroke-dasharray="none" opacity="1.0" fill="none"/><g id="ProcessOnG1074" transform="matrix(1.0,0.0,0.0,1.0,0.0,-5.0)"><text id="ProcessOnText1075" fill="#000000" font-size="24" x="16.884933471679688" y="24.6" font-family="微软雅黑" font-weight="normal" font-style="normal" text-decoration="none" family="微软雅黑" text-anchor="middle" size="24">...</text></g></g></g></g></svg>